<svg version="1.1" id="Слой_1"
	xmlns="http://www.w3.org/2000/svg"
	xmlns:xlink="http://www.w3.org/1999/xlink" width="1090" height="512" viewBox="0 0 237 110" xml:space="preserve">
	<g transform="matrix(1, 0, 0, 1, -59.70953, 0)">
		<polygon fill="#da2032" points="161.352,39.1004 164.463,22.1054 166.716,22.1054 171.263,33.0214 175.95,22.1054 178.263,22.1054
		181.075,39.1004 177.76,39.0984 176.254,28.7254 171.662,39.3324 170.763,39.3324 166.375,28.8254 164.665,39.1004 	"/>
		<path fill="#da2032" d="M188.6431,27.9198c0.848,0,1.646,0.12,2.389,0.383c0.743,0.262,1.409,0.638,1.997,1.141
		c0.554,0.516,0.989,1.137,1.33,1.876c0.33,0.739,0.5,1.524,0.504,2.381c-0.004,0.864-0.174,1.661-0.504,2.388
		c-0.341,0.727-0.776,1.337-1.332,1.843c-0.586,0.514-1.252,0.894-1.995,1.149c-0.743,0.252-1.541,0.372-2.394,0.372
		c-0.875,0-1.678-0.12-2.421-0.377c-0.743-0.247-1.402-0.63-1.971-1.144c-0.569-0.503-1.016-1.116-1.343-1.843
		c-0.323-0.727-0.486-1.524-0.486-2.388c0-0.857,0.163-1.642,0.486-2.381c0.327-0.739,0.774-1.36,1.343-1.876
		c0.569-0.505,1.228-0.877,1.971-1.141S187.7631,27.9198,188.6431,27.9198 M188.6381,36.7498c0.868,0,1.598-0.294,2.182-0.885
		c0.587-0.593,0.881-1.315,0.881-2.164c0-0.857-0.294-1.576-0.881-2.175c-0.584-0.587-1.314-0.886-2.177-0.911
		c-0.896,0.004-1.629,0.301-2.2,0.904c-0.577,0.6-0.865,1.327-0.865,2.182c0,0.846,0.288,1.571,0.865,2.175
		C187.0141,36.4738,187.7501,36.7678,188.6381,36.7498"/>
		<path fill="#da2032" d="M205.4804,28.5667v2.999c-0.356-0.295-0.739-0.528-1.142-0.698c-0.412-0.167-0.868-0.251-1.371-0.251
		c-0.971,0-1.727,0.299-2.267,0.902c-0.546,0.6-0.807,1.317-0.792,2.153c0,0.9,0.296,1.636,0.891,2.219
		c0.595,0.572,1.353,0.859,2.271,0.859c0.438,0,0.856-0.078,1.264-0.234c0.413-0.16,0.79-0.394,1.146-0.711v2.973
		c-0.437,0.221-0.894,0.383-1.359,0.498c-0.47,0.121-0.953,0.177-1.454,0.177c-0.818-0.02-1.602-0.156-2.333-0.431
		c-0.739-0.282-1.356-0.661-1.858-1.146c-0.554-0.499-0.971-1.104-1.281-1.815c-0.296-0.709-0.448-1.489-0.448-2.336
		c0-0.92,0.17-1.754,0.5-2.505c0.335-0.755,0.798-1.39,1.378-1.906c0.535-0.462,1.14-0.813,1.807-1.049
		c0.671-0.235,1.379-0.345,2.112-0.346c0.548,0.001,1.065,0.054,1.538,0.158C204.5634,28.1867,205.0254,28.3447,205.4804,28.5667"/>
		<polygon fill="#da2032" points="208.1875,28.2645 211.2485,28.2685 211.2485,32.4655 215.3115,28.2645 219.1235,28.2685
		214.2095,33.0955 219.3755,39.0985 215.4655,39.1025 211.7025,34.6235 211.2485,35.0745 211.2485,39.0985 208.1875,39.1005 	"/>
		<path fill="#da2032" d="M225.5943,27.9198c0.849,0,1.647,0.12,2.395,0.383c0.743,0.262,1.405,0.636,1.993,1.141
		c0.551,0.516,0.99,1.137,1.326,1.876c0.337,0.739,0.501,1.524,0.501,2.381c0,0.864-0.164,1.661-0.501,2.388
		c-0.336,0.727-0.778,1.34-1.323,1.843c-0.591,0.514-1.253,0.897-1.996,1.144c-0.748,0.257-1.546,0.377-2.395,0.377
		c-0.875,0-1.68-0.12-2.421-0.372c-0.744-0.255-1.405-0.635-1.974-1.149c-0.567-0.503-1.011-1.116-1.339-1.843
		c-0.327-0.727-0.497-1.524-0.497-2.39c0-0.853,0.17-1.64,0.497-2.379c0.324-0.739,0.772-1.362,1.339-1.876
		c0.573-0.503,1.23-0.879,1.974-1.141C223.9143,28.0388,224.7193,27.9178,225.5943,27.9198 M225.5943,36.7498
		c0.866,0,1.594-0.294,2.181-0.885c0.581-0.593,0.876-1.318,0.876-2.164c0-0.855-0.295-1.576-0.876-2.173
		c-0.587-0.589-1.315-0.888-2.181-0.913c-0.889,0.002-1.62,0.301-2.199,0.904c-0.578,0.6-0.862,1.325-0.862,2.182
		c0,0.849,0.284,1.571,0.862,2.175C223.9743,36.4738,224.7053,36.7678,225.5943,36.7498"/>
		<path fill="#da2032" d="M233.9848,28.2685l4.792-0.004c0.641,0,1.143,0.05,1.536,0.15c0.384,0.104,0.731,0.267,1.052,0.505
		c0.312,0.242,0.572,0.554,0.761,0.919c0.194,0.364,0.293,0.769,0.293,1.207c0,0.482-0.136,0.921-0.403,1.327
		c-0.268,0.397-0.64,0.695-1.105,0.897c0.247,0.073,0.504,0.157,0.754,0.275c0.245,0.122,0.475,0.258,0.672,0.427
		c0.27,0.268,0.47,0.57,0.609,0.916c0.132,0.343,0.206,0.711,0.221,1.114c0,0.532-0.104,0.999-0.312,1.399
		c-0.204,0.398-0.493,0.735-0.839,1.002c-0.318,0.254-0.684,0.431-1.103,0.54c-0.42,0.105-0.859,0.158-1.331,0.156h-5.597V28.2685z
		 M237.0448,32.5675h1.41c0.151,0,0.294-0.014,0.437-0.046c0.14-0.036,0.266-0.087,0.361-0.149c0.139-0.084,0.237-0.193,0.305-0.316
		c0.065-0.128,0.098-0.27,0.096-0.438c0.002-0.163-0.031-0.312-0.096-0.451c-0.068-0.132-0.147-0.238-0.253-0.326
		c-0.089-0.046-0.183-0.088-0.312-0.108c-0.124-0.029-0.323-0.048-0.589-0.064h-1.359V32.5675z M237.0448,36.6995h1.437
		c0.263,0,0.483-0.02,0.664-0.061c0.172-0.039,0.328-0.109,0.46-0.209c0.122-0.092,0.216-0.212,0.288-0.369
		c0.073-0.156,0.115-0.33,0.112-0.51c0.003-0.148-0.039-0.296-0.112-0.427c-0.072-0.142-0.166-0.25-0.288-0.345
		c-0.11-0.071-0.261-0.127-0.441-0.171c-0.172-0.038-0.376-0.066-0.611-0.086h-1.509V36.6995z"/>
		<path fill="#da2032" d="M253.5639,28.5667v2.999c-0.356-0.295-0.733-0.528-1.145-0.7c-0.412-0.165-0.866-0.249-1.368-0.249
		c-0.968,0-1.72,0.299-2.267,0.902c-0.545,0.6-0.807,1.317-0.789,2.153c0,0.9,0.294,1.636,0.885,2.219
		c0.597,0.572,1.352,0.859,2.272,0.859c0.438,0,0.855-0.078,1.267-0.232c0.412-0.162,0.794-0.396,1.14-0.713v2.973
		c-0.437,0.221-0.884,0.385-1.353,0.498c-0.47,0.123-0.952,0.177-1.452,0.177c-0.821-0.02-1.594-0.16-2.336-0.431
		c-0.738-0.28-1.354-0.661-1.857-1.146c-0.549-0.499-0.982-1.104-1.283-1.819c-0.293-0.705-0.447-1.485-0.447-2.332
		c0-0.92,0.171-1.754,0.503-2.505c0.332-0.755,0.796-1.39,1.376-1.904c0.541-0.471,1.143-0.815,1.808-1.047
		c0.668-0.239,1.373-0.349,2.107-0.349c0.548,0,1.069,0.053,1.542,0.157C252.6449,28.1867,253.1059,28.3447,253.5639,28.5667"/>
		<polygon fill="#da2032" points="256.1084,28.2645 259.1634,28.2685 259.1634,32.4655 263.2294,28.2645 267.0414,28.2685
		262.1264,33.0955 267.2994,39.1005 263.3784,39.1005 259.6204,34.6175 259.1634,35.0745 259.1634,39.0985 256.1084,39.0985 	"/>
		<polygon fill="#da2032" points="268.8134,28.2645 271.8784,28.2685 271.8734,34.9505 276.8924,28.2685 279.9554,28.2685
		279.9554,39.0985 276.8924,39.0985 276.8924,32.4195 271.8734,39.1005 268.8134,39.1025 	"/>
		<path fill="#da2032" d="M283.0284,28.2688h3.063v6.681l5.016-6.685l3.06,0.004v10.83l-3.06,0.002v-6.681l-5.016,6.681l-3.063-0.002
		V28.2688z M290.7074,22.8348l1.998,0.951c-0.294,0.849-0.821,1.496-1.576,1.94c-0.753,0.439-1.593,0.65-2.53,0.634
		c-0.959,0.002-1.806-0.216-2.557-0.652c-0.752-0.428-1.276-1.073-1.559-1.922l2.007-0.951c0.09,0.464,0.326,0.847,0.713,1.135
		c0.4,0.292,0.857,0.439,1.396,0.439c0.535,0.004,0.99-0.144,1.367-0.439C290.3434,23.6778,290.5874,23.2968,290.7074,22.8348"/>
		<polygon fill="#da2032" points="172.1402,49.4959 168.3802,49.4959 168.3742,63.3899 165.1162,63.3899 165.1162,49.4959
		161.3522,49.4959 161.3522,46.6869 172.1402,46.6869 	"/>
		<path fill="#da2032" d="M175.249,61.9867v7.207h-3.059v-16.645h3.059v1.404c0.389-0.554,0.875-0.983,1.469-1.289
		c0.595-0.311,1.281-0.469,2.069-0.468c1.573,0.018,2.857,0.571,3.85,1.659c0.993,1.085,1.496,2.45,1.496,4.098
		c0,1.678-0.511,3.049-1.518,4.145c-1.012,1.096-2.311,1.644-3.897,1.644c-0.728-0.021-1.376-0.168-1.961-0.441
		C176.171,63.0237,175.67,62.5857,175.249,61.9867 M177.957,54.9017c-0.884,0-1.61,0.296-2.175,0.893
		c-0.575,0.588-0.853,1.311-0.833,2.16c0,0.887,0.279,1.622,0.84,2.207c0.565,0.582,1.284,0.876,2.168,0.876
		c0.87,0,1.594-0.294,2.16-0.879c0.568-0.582,0.851-1.315,0.851-2.204c0-0.849-0.283-1.57-0.851-2.15
		C179.551,55.2217,178.827,54.9197,177.957,54.9017"/>
		<path fill="#da2032" d="M194.8168,53.9526v-1.403h3.062v10.841h-3.062v-1.407c-0.402,0.587-0.877,1.024-1.441,1.319
		c-0.556,0.291-1.192,0.439-1.892,0.439c-1.643,0-2.978-0.562-4.004-1.672c-1.031-1.103-1.544-2.475-1.544-4.115
		c0-1.617,0.5-2.983,1.507-4.094c1.005-1.107,2.3-1.664,3.886-1.664c0.773,0,1.448,0.156,2.035,0.453
		C193.9498,52.9476,194.4348,53.3836,194.8168,53.9526 M192.1078,54.9056c-0.889-0.004-1.61,0.292-2.168,0.883
		c-0.559,0.594-0.845,1.317-0.845,2.166c0.003,0.887,0.286,1.622,0.845,2.204c0.558,0.585,1.279,0.879,2.168,0.879
		c0.87,0,1.582-0.294,2.145-0.879c0.56-0.582,0.854-1.317,0.866-2.204c0.003-0.849-0.286-1.572-0.851-2.166
		C193.6988,55.1956,192.9778,54.9056,192.1078,54.9056"/>
		<polygon fill="#da2032" points="200.7031,63.3904 200.7031,52.5494 203.7631,52.5494 203.7631,56.3774 208.0261,56.3774
		208.0261,52.5494 211.0931,52.5494 211.0931,63.3904 208.0261,63.3904 208.0261,58.9834 203.7631,58.9864 203.7631,63.3904 	"/>
		<path fill="#da2032" d="M222.1806,52.8475v3.007c-0.353-0.304-0.735-0.539-1.143-0.706c-0.408-0.163-0.863-0.247-1.368-0.245
		c-0.967-0.002-1.724,0.3-2.274,0.901c-0.536,0.599-0.803,1.321-0.787,2.148c0,0.907,0.294,1.642,0.894,2.215
		c0.592,0.578,1.346,0.87,2.269,0.87c0.43,0,0.858-0.081,1.266-0.24s0.79-0.395,1.143-0.715v2.98
		c-0.434,0.217-0.887,0.387-1.357,0.5c-0.467,0.115-0.954,0.18-1.454,0.18c-0.819-0.018-1.596-0.168-2.333-0.44
		c-0.738-0.277-1.353-0.658-1.856-1.142c-0.553-0.5-0.977-1.102-1.281-1.811c-0.299-0.711-0.446-1.49-0.446-2.345
		c0-0.915,0.166-1.751,0.5-2.502c0.329-0.745,0.795-1.384,1.377-1.901c0.537-0.465,1.136-0.82,1.81-1.052
		c0.662-0.235,1.37-0.351,2.108-0.351c0.549,0,1.06,0.056,1.538,0.167C221.2616,52.4675,221.7246,52.6315,222.1806,52.8475"/>
		<polygon fill="#da2032" points="224.7704,52.5491 235.0544,52.5491 235.0544,63.3901 231.9884,63.3901 231.9884,55.1541
		227.8244,55.1481 227.8244,63.3901 224.7704,63.3901 	"/>
		<path fill="#da2032" d="M243.4238,52.1989c0.849,0,1.65,0.13,2.391,0.386c0.747,0.256,1.407,0.643,1.998,1.138
		c0.548,0.521,0.989,1.148,1.331,1.88c0.329,0.734,0.501,1.525,0.501,2.382c-0.004,0.867-0.172,1.66-0.501,2.386
		c-0.342,0.724-0.783,1.336-1.331,1.841c-0.591,0.518-1.251,0.901-1.998,1.153c-0.736,0.248-1.542,0.377-2.391,0.377
		c-0.874,0-1.682-0.131-2.427-0.377c-0.738-0.246-1.396-0.633-1.97-1.153c-0.562-0.505-1.015-1.117-1.337-1.841
		c-0.327-0.722-0.489-1.519-0.489-2.384c0-0.859,0.162-1.65,0.489-2.381c0.33-0.735,0.775-1.362,1.337-1.883
		c0.574-0.495,1.232-0.877,1.97-1.134C241.7418,52.3289,242.5498,52.1989,243.4238,52.1989 M243.4238,61.0379
		c0.861,0,1.594-0.298,2.182-0.893c0.585-0.59,0.876-1.311,0.876-2.164s-0.291-1.57-0.88-2.167
		c-0.584-0.591-1.317-0.892-2.178-0.912c-0.889,0.002-1.622,0.302-2.192,0.903c-0.583,0.596-0.875,1.323-0.875,2.18
		c0,0.849,0.292,1.576,0.875,2.172C241.8018,60.7619,242.5348,61.0549,243.4238,61.0379"/>
		<path fill="#da2032" d="M254.8519,61.9847v7.21h-3.059v-16.647l3.059,0.001v1.404c0.385-0.554,0.871-0.983,1.466-1.289
		c0.596-0.313,1.287-0.465,2.071-0.465c1.573,0.015,2.854,0.566,3.854,1.656c0.994,1.085,1.492,2.45,1.492,4.1
		c0,1.676-0.507,3.047-1.517,4.143c-1.013,1.096-2.312,1.644-3.905,1.644c-0.719-0.019-1.368-0.168-1.958-0.439
		C255.7749,63.0237,255.2699,62.5857,254.8519,61.9847 M257.5629,54.9017c-0.889,0.002-1.614,0.294-2.182,0.893
		c-0.572,0.588-0.847,1.311-0.827,2.16c0,0.887,0.276,1.622,0.839,2.202c0.561,0.587,1.281,0.881,2.17,0.881
		c0.87,0,1.59-0.294,2.151-0.881c0.571-0.58,0.86-1.315,0.86-2.204c0-0.847-0.284-1.568-0.86-2.15
		C259.1489,55.2177,258.4329,54.9197,257.5629,54.9017"/>
		<polygon fill="#da2032" points="273.873,55.1541 270.862,55.1481 270.862,63.3901 267.795,63.3901 267.791,55.1481
		264.786,55.1541 264.786,52.5491 273.871,52.5491 	"/>
		<path fill="#da2032" d="M97.4708,45.6566c0-6.316,5.139-11.457,11.456-11.457c6.318,0,11.456,5.141,11.456,11.457
		c0,6.321-5.138,11.46-11.456,11.46C102.6098,57.1166,97.4708,51.9776,97.4708,45.6566 M127.7118,45.6566
		c0-10.358-8.428-18.786-18.785-18.786s-18.784,8.428-18.784,18.786c0,10.359,8.427,18.789,18.784,18.789
		S127.7118,56.0156,127.7118,45.6566"/>
		<path fill="#da2032" d="M140.8652,45.658c0-17.611-14.326-31.939-31.94-31.939c-17.608,0-31.938,14.328-31.938,31.939
		c0,8.783,3.627,16.831,9.326,22.531c0.673,0.672,1.602,1.11,2.635,1.11c2.021,0,3.661-1.641,3.661-3.664
		c0-1.049-0.442-1.989-1.145-2.659c-4.415-4.448-7.147-10.569-7.147-17.318c0-13.571,11.041-24.611,24.608-24.611
		c13.572,0,24.615,11.04,24.615,24.611c0,6.784-2.762,12.935-7.215,17.389l-31.9,31.9l5.182,5.18l31.935-31.938
		C137.3012,62.408,140.8652,54.441,140.8652,45.658"/>
		<path fill="#da2032" d="M103.7226,104.242l5.195,5.195l31.915-31.912c8.148-8.16,13.189-19.425,13.189-31.867
		c0-24.904-20.188-45.095-45.095-45.095c-24.903,0-45.094,20.191-45.094,45.095c0,12.432,5.052,23.727,13.168,31.844
		c0.691,0.687,1.603,1.094,2.632,1.094c2.022,0,3.663-1.643,3.663-3.663c0-1.029-0.44-1.968-1.123-2.652
		c-6.78-6.777-11.011-16.232-11.011-26.623c0-20.823,16.943-37.766,37.765-37.766c20.824,0,37.766,16.943,37.766,37.766
		c0,10.413-4.237,19.855-11.079,26.693L103.7226,104.242z"/>
	</g>
</svg>
